<svg width="34" height="34" viewBox="0 0 34 34" fill="none" xmlns="http://www.w3.org/2000/svg">
<path d="M24.3337 17.0002V8.14391C24.3337 7.91848 24.2441 7.70228 24.0848 7.54287L19.6242 3.08246C19.4649 2.92304 19.2487 2.8335 19.0233 2.8335H2.51699C2.04755 2.8335 1.66699 3.21406 1.66699 3.6835V30.3168C1.66699 30.7863 2.04755 31.1668 2.51699 31.1668H11.5837" stroke="#090E0B" stroke-width="2.5" stroke-linecap="round" stroke-linejoin="round"/>
<path d="M24.6257 23.9204L26.3211 22.225C27.0635 21.4826 28.2672 21.4826 29.0096 22.225C29.752 22.9674 29.752 24.1711 29.0096 24.9135L27.3142 26.6089M24.6257 23.9204L19.5547 28.9914C19.3006 29.2455 19.1337 29.5739 19.0785 29.929L18.667 32.5676L21.3055 32.1563C21.6607 32.1009 21.9889 31.9341 22.243 31.6799L27.3142 26.6089" stroke="#090E0B" stroke-width="2.5" stroke-linecap="round" stroke-linejoin="round"/>
<path d="M18.667 2.8335V7.65016C18.667 8.1196 19.0475 8.50016 19.517 8.50016H24.3337" stroke="#090E0B" stroke-width="2" stroke-linecap="round" stroke-linejoin="round"/>
</svg>
