<svg width="34" height="34" viewBox="0 0 34 34" fill="none" xmlns="http://www.w3.org/2000/svg">
<path d="M1.82227 26.9167H6.07227M6.07227 26.9167H10.3223M6.07227 26.9167V22.6667M6.07227 26.9167V31.1667" stroke="#090E0B" stroke-width="2.5" stroke-linecap="round" stroke-linejoin="round"/>
<path d="M8.91699 2.8335H22.3753L28.7503 9.2085V26.9168" stroke="#090E0B" stroke-width="2.5" stroke-linecap="round" stroke-linejoin="round"/>
<path d="M14.5833 31.1668H22.375C23.5486 31.1668 24.5 30.2154 24.5 29.0418V12.3939C24.5 12.1685 24.4105 11.9523 24.2511 11.7929L19.7906 7.33246C19.6312 7.17304 19.415 7.0835 19.1896 7.0835H5.375C4.20139 7.0835 3.25 8.03489 3.25 9.2085V18.4168" stroke="#090E0B" stroke-width="2.5" stroke-linecap="round" stroke-linejoin="round"/>
<path d="M18.833 7.0835V11.9002C18.833 12.3696 19.2135 12.7502 19.683 12.7502H24.4997" stroke="#090E0B" stroke-width="2.5" stroke-linecap="round" stroke-linejoin="round"/>
</svg>
