<svg width="34" height="34" viewBox="0 0 34 34" fill="none" xmlns="http://www.w3.org/2000/svg">
<path d="M25.5137 27.6226L27.3805 29.5088" stroke="#090E0B" stroke-width="2.5" stroke-linecap="round" stroke-linejoin="round"/>
<path d="M18.668 24.4788C18.668 26.5623 20.3395 28.2513 22.4016 28.2513C23.4345 28.2513 24.3692 27.8275 25.0452 27.1428C25.7188 26.4603 26.1353 25.5187 26.1353 24.4788C26.1353 22.3952 24.4637 20.7063 22.4016 20.7063C20.3395 20.7063 18.668 22.3952 18.668 24.4788Z" stroke="#090E0B" stroke-width="2.5" stroke-linecap="round" stroke-linejoin="round"/>
<path d="M24.8913 16.9338V9.07263C24.8913 8.87253 24.8126 8.68062 24.6726 8.53912L20.754 4.57988C20.614 4.43837 20.4241 4.35889 20.2261 4.35889H5.72524C5.31284 4.35889 4.97852 4.69669 4.97852 5.11338V28.7542C4.97852 29.171 5.31284 29.5087 5.72524 29.5087H13.6903" stroke="#090E0B" stroke-width="2.5" stroke-linecap="round" stroke-linejoin="round"/>
<path d="M19.9131 4.35889V8.63436C19.9131 9.05106 20.2474 9.38886 20.6598 9.38886H24.8913" stroke="#090E0B" stroke-width="2.5" stroke-linecap="round" stroke-linejoin="round"/>
</svg>
