<svg width="34" height="34" viewBox="0 0 34 34" fill="none" xmlns="http://www.w3.org/2000/svg">
<path d="M20.6663 18.4168C16.7544 18.4168 13.583 16.8312 13.583 14.8752C13.583 12.9192 16.7544 11.3335 20.6663 11.3335C24.5783 11.3335 27.7497 12.9192 27.7497 14.8752C27.7497 16.8312 24.5783 18.4168 20.6663 18.4168Z" stroke="#090E0B" stroke-width="2.5" stroke-linecap="round" stroke-linejoin="round"/>
<path d="M13.583 20.5415C13.583 22.4975 16.7544 24.0832 20.6663 24.0832C24.5783 24.0832 27.7497 22.4975 27.7497 20.5415" stroke="#090E0B" stroke-width="2.5" stroke-linecap="round" stroke-linejoin="round"/>
<path d="M2.25 13.4585C2.25 15.4145 5.42132 17.0002 9.33333 17.0002C10.9283 17.0002 12.4 16.7367 13.584 16.2918" stroke="#090E0B" stroke-width="2.5" stroke-linecap="round" stroke-linejoin="round"/>
<path d="M2.25 18.4165C2.25 20.3725 5.42132 21.9582 9.33333 21.9582C10.9279 21.9582 12.3994 21.6947 13.5833 21.2501" stroke="#090E0B" stroke-width="2.5" stroke-linecap="round" stroke-linejoin="round"/>
<path d="M2.25 7.7915V23.3748C2.25 25.3308 5.42132 26.9165 9.33333 26.9165C10.928 26.9165 12.3994 26.6529 13.5833 26.2082" stroke="#090E0B" stroke-width="2.5" stroke-linecap="round" stroke-linejoin="round"/>
<path d="M16.417 12.0415V7.7915" stroke="#090E0B" stroke-width="2.5" stroke-linecap="round" stroke-linejoin="round"/>
<path d="M13.583 14.875V26.2083C13.583 28.1643 16.7544 29.75 20.6663 29.75C24.5783 29.75 27.7497 28.1643 27.7497 26.2083V14.875" stroke="#090E0B" stroke-width="2.5" stroke-linecap="round" stroke-linejoin="round"/>
<path d="M9.33333 11.3333C5.42132 11.3333 2.25 9.74767 2.25 7.79167C2.25 5.83566 5.42132 4.25 9.33333 4.25C13.2453 4.25 16.4167 5.83566 16.4167 7.79167C16.4167 9.74767 13.2453 11.3333 9.33333 11.3333Z" stroke="#090E0B" stroke-width="2.5" stroke-linecap="round" stroke-linejoin="round"/>
</svg>
