<svg width="34" height="34" viewBox="0 0 34 34" fill="none" xmlns="http://www.w3.org/2000/svg">
<path d="M12.7768 12.7499C12.7591 12.5161 12.75 12.2799 12.75 12.0416C12.75 6.95596 16.8726 2.83325 21.9583 2.83325C27.044 2.83325 31.1667 6.95596 31.1667 12.0416C31.1667 17.1273 27.044 21.2499 21.9583 21.2499C21.72 21.2499 21.4837 21.2409 21.25 21.2231" stroke="#090E0B" stroke-width="2.5" stroke-linecap="round" stroke-linejoin="round"/>
<path d="M12.0413 31.1667C6.95572 31.1667 2.83301 27.044 2.83301 21.9583C2.83301 16.8726 6.95572 12.75 12.0413 12.75C17.127 12.75 21.2497 16.8726 21.2497 21.9583C21.2497 27.044 17.127 31.1667 12.0413 31.1667Z" stroke="#090E0B" stroke-width="2.5" stroke-linecap="round" stroke-linejoin="round"/>
<path d="M31.1663 24.0833C31.1663 26.4305 29.2636 28.3333 26.9163 28.3333H24.083M24.083 28.3333L26.9163 25.4999M24.083 28.3333L26.9163 31.1666" stroke="#090E0B" stroke-width="2.5" stroke-linecap="round" stroke-linejoin="round"/>
<path d="M2.83301 9.91659C2.83301 7.56938 4.7358 5.66659 7.08301 5.66659H9.91634M9.91634 5.66659L7.08301 8.49992M9.91634 5.66659L7.08301 2.83325" stroke="#090E0B" stroke-width="2.5" stroke-linecap="round" stroke-linejoin="round"/>
</svg>
