<svg width="34" height="34" viewBox="0 0 34 34" fill="none" xmlns="http://www.w3.org/2000/svg">
<path d="M19.833 21.25L21.958 23.375" stroke="#090E0B" stroke-width="2.5" stroke-linecap="round" stroke-linejoin="round"/>
<path d="M12.042 17.7083C12.042 20.0555 13.9448 21.9583 16.292 21.9583C17.4677 21.9583 18.5317 21.4808 19.3011 20.7095C20.068 19.9406 20.542 18.8798 20.542 17.7083C20.542 15.361 18.6393 13.4583 16.292 13.4583C13.9448 13.4583 12.042 15.361 12.042 17.7083Z" stroke="#090E0B" stroke-width="2.5" stroke-linecap="round" stroke-linejoin="round"/>
<path d="M5.66699 30.3166V3.68325C5.66699 3.21381 6.04755 2.83325 6.51699 2.83325H23.0233C23.2487 2.83325 23.4649 2.9228 23.6242 3.08222L28.0848 7.54262C28.2441 7.70204 28.3337 7.91824 28.3337 8.14367V30.3166C28.3337 30.7861 27.9531 31.1666 27.4837 31.1666H6.51699C6.04755 31.1666 5.66699 30.7861 5.66699 30.3166Z" stroke="#090E0B" stroke-width="2.5" stroke-linecap="round" stroke-linejoin="round"/>
<path d="M22.667 2.83325V7.64992C22.667 8.11936 23.0475 8.49992 23.517 8.49992H28.3337" stroke="#090E0B" stroke-width="2.5" stroke-linecap="round" stroke-linejoin="round"/>
</svg>
