<svg width="34" height="34" viewBox="0 0 34 34" fill="none" xmlns="http://www.w3.org/2000/svg">
<path d="M7.16699 12.7643L7.18116 12.7485" stroke="#090E0B" stroke-width="2.5" stroke-linecap="round" stroke-linejoin="round"/>
<path d="M12.833 12.7643L12.8472 12.7485" stroke="#090E0B" stroke-width="2.5" stroke-linecap="round" stroke-linejoin="round"/>
<path d="M7.16699 18.4308L7.18116 18.415" stroke="#090E0B" stroke-width="2.5" stroke-linecap="round" stroke-linejoin="round"/>
<path d="M12.833 18.4308L12.8472 18.415" stroke="#090E0B" stroke-width="2.5" stroke-linecap="round" stroke-linejoin="round"/>
<path d="M7.16699 24.0975L7.18116 24.0818" stroke="#090E0B" stroke-width="2.5" stroke-linecap="round" stroke-linejoin="round"/>
<path d="M12.833 24.0975L12.8472 24.0818" stroke="#090E0B" stroke-width="2.5" stroke-linecap="round" stroke-linejoin="round"/>
<path d="M1.5 28.9V7.93333C1.5 7.46389 1.88056 7.08333 2.35 7.08333H10V5.1C10 4.63056 10.3805 4.25 10.85 4.25H17.65C18.1195 4.25 18.5 4.63056 18.5 5.1V28.9C18.5 29.3695 18.1195 29.75 17.65 29.75H2.35C1.88056 29.75 1.5 29.3695 1.5 28.9Z" stroke="#090E0B" stroke-width="2.5" stroke-linecap="round" stroke-linejoin="round"/>
</svg>
