<svg width="34" height="34" viewBox="0 0 34 34" fill="none" xmlns="http://www.w3.org/2000/svg">
<path d="M6.08301 23.3752V25.5002C6.08301 27.065 7.35153 28.3335 8.91634 28.3335H27.333C28.8979 28.3335 30.1663 27.065 30.1663 25.5002V16.1907V14.1668C30.1663 12.602 28.8979 11.3335 27.333 11.3335H25.9163" stroke="#090E0B" stroke-width="2.5" stroke-linecap="round" stroke-linejoin="round"/>
<path d="M25.9163 11.3333V20.5417C25.9163 22.1065 24.6479 23.375 23.083 23.375H4.66634C3.10153 23.375 1.83301 22.1065 1.83301 20.5417V9.20833C1.83301 7.64353 3.10153 6.375 4.66634 6.375H23.083C24.6479 6.375 25.9163 7.64353 25.9163 9.20833V11.3333ZM25.9163 11.3333H6.79134" stroke="#090E0B" stroke-width="2.5" stroke-linecap="round" stroke-linejoin="round"/>
</svg>
