<svg width="34" height="34" viewBox="0 0 34 34" fill="none" xmlns="http://www.w3.org/2000/svg">
<path d="M25.3337 16.9999V8.14367C25.3337 7.91824 25.2441 7.70204 25.0848 7.54262L20.6242 3.08222C20.4649 2.9228 20.2487 2.83325 20.0233 2.83325H3.51699C3.04755 2.83325 2.66699 3.21381 2.66699 3.68325V30.3166C2.66699 30.7861 3.04755 31.1666 3.51699 31.1666H15.417" stroke="#090E0B" stroke-width="2.5" stroke-linecap="round" stroke-linejoin="round"/>
<path d="M19.667 2.83325V7.64992C19.667 8.11936 20.0475 8.49992 20.517 8.49992H25.3337" stroke="#090E0B" stroke-width="2.5" stroke-linecap="round" stroke-linejoin="round"/>
<path d="M25.3221 21.427L28.9423 22.3464C29.3191 22.4422 29.5849 22.7846 29.5733 23.1732C29.33 31.3307 24.6247 32.5832 24.6247 32.5832C24.6247 32.5832 19.9194 31.3307 19.6761 23.1732C19.6645 22.7846 19.9303 22.4422 20.3071 22.3464L23.9273 21.427C24.385 21.3108 24.8644 21.3108 25.3221 21.427Z" stroke="#090E0B" stroke-width="2.5" stroke-linecap="round" stroke-linejoin="round"/>
</svg>
