<svg width="34" height="34" viewBox="0 0 34 34" fill="none" xmlns="http://www.w3.org/2000/svg">
<path d="M17.0007 31.1661C24.8246 31.1661 31.1673 24.8234 31.1673 16.9994C31.1673 9.17539 24.8246 2.83276 17.0007 2.83276C9.17661 2.83276 2.83398 9.17539 2.83398 16.9994C2.83398 24.8234 9.17661 31.1661 17.0007 31.1661Z" stroke="#090E0B" stroke-width="2.5" stroke-linecap="round" stroke-linejoin="round"/>
<path d="M21.25 12.0422C20.2796 11.0718 18.5707 10.3968 17 10.3546M17 10.3546C15.1313 10.3043 13.4583 11.1497 13.4583 13.4589C13.4583 17.7089 21.25 15.5839 21.25 19.8339C21.25 22.2578 19.1763 23.2994 17 23.2212M17 10.3546V7.79224M12.75 21.2506C13.663 22.4679 15.3606 23.1622 17 23.2212M17 23.2212V26.2089" stroke="#090E0B" stroke-width="2.5" stroke-linecap="round" stroke-linejoin="round"/>
</svg>
